<?xml version="1.0" standalone="no"?><!DOCTYPE svg PUBLIC "-//W3C//DTD SVG 1.1//EN" "http://www.w3.org/Graphics/SVG/1.1/DTD/svg11.dtd"><svg t="1681961534580" class="icon" viewBox="0 0 1024 1024" version="1.1" xmlns="http://www.w3.org/2000/svg" p-id="2071" id="mx_n_1681961534581" width="48" height="48" xmlns:xlink="http://www.w3.org/1999/xlink"><path d="M0 0m113.777778 0l796.444444 0q113.777778 0 113.777778 113.777778l0 796.444444q0 113.777778-113.777778 113.777778l-796.444444 0q-113.777778 0-113.777778-113.777778l0-796.444444q0-113.777778 113.777778-113.777778Z" fill="#ED8888" p-id="2072"></path><path d="M597.485037 565.627259s5.157926-46.26963 6.409482-49.607111c-2.123852 1.592889-7.964444 4.93037-10.012445 6.637037-12.932741 10.884741-47.066074 14.601481-81.882074 13.767111-34.816 0.83437-68.949333-2.88237-81.882074-13.767111-2.048-1.706667-7.888593-5.044148-10.012445-6.637037 1.251556 3.337481 6.447407 49.645037 6.409482 49.607111 1.251556 84.726519-13.312 96.862815-20.593778 124.738371 23.172741 44.069926 56.888889 86.888296 79.909926 130.958222 5.006222 9.519407 15.890963 11.719111 22.945185 18.621629v3.982223l2.503111 1.289481c0.227556-0.417185 0.493037-0.83437 0.758519-1.251555 0.265481 0.417185 0.530963 0.83437 0.758518 1.251555l2.503112-1.289481v-3.982223c7.054222-6.902519 17.938963-9.102222 22.945185-18.621629 23.134815-44.069926 56.888889-86.888296 79.909926-130.958222-7.35763-27.875556-21.921185-40.011852-20.66963-124.738371z" fill="#F5C4A5" p-id="2073"></path><path d="M357.641481 694.575407h308.754963v218.605037H357.641481z" fill="#EAE0EB" p-id="2074"></path><path d="M513.099852 1024h254.445037c2.048-14.14637 4.209778-28.254815 5.802667-42.477037 5.499259-49.303704 4.171852-99.252148 9.02637-148.66963 2.199704-22.300444 5.688889-41.984 5.650963-64.474074 0-17.104593 2.351407-34.512593 3.792592-51.503407 0.530963-6.33363 3.792593-18.280296-0.948148-22.755556a15.625481 15.625481 0 0 0-6.674963-2.920296 31.478519 31.478519 0 0 0-7.964444-3.337481c-6.144-1.706667-12.47763-4.399407-18.962963-5.802667-11.908741-2.616889-23.703704-6.068148-35.460741-9.481482a544.350815 544.350815 0 0 1-71.755852-25.903407 97.545481 97.545481 0 0 0-10.012444-4.892444c-2.048-0.644741-6.712889-0.644741-7.926519-2.048a2.313481 2.313481 0 0 0-3.375407 0.417185 7.926519 7.926519 0 0 0-1.289481 3.792592 306.441481 306.441481 0 0 1-22.755556 75.093334c-1.630815 3.792593-3.26163 7.585185-4.968296 11.112296-15.853037 34.853926-35.346963 71.149037-65.156741 94.549333-5.726815 4.475259-15.36 13.312-22.755556 11.946667-7.35763 1.365333-16.990815-7.585185-22.755555-11.946667-29.809778-23.400296-49.303704-59.695407-65.156741-94.549333-1.706667-3.792593-3.337481-7.395556-4.968296-11.112296a306.441481 306.441481 0 0 1-22.755556-75.093334 7.926519 7.926519 0 0 0-1.289481-3.792592 2.313481 2.313481 0 0 0-3.375408-0.417185c-1.21363 1.403259-5.878519 1.403259-7.926518 2.048a97.545481 97.545481 0 0 0-10.012445 4.892444 544.350815 544.350815 0 0 1-71.755851 25.903407c-11.757037 3.413333-23.552 6.864593-35.460741 9.481482-6.447407 1.403259-12.781037 4.096-18.962963 5.802667a31.478519 31.478519 0 0 0-7.964445 3.337481 15.625481 15.625481 0 0 0-6.674963 2.920296c-4.816593 4.626963-1.479111 16.57363-0.948148 22.755556 1.479111 16.990815 3.792593 34.398815 3.792593 51.503407 0 22.414222 3.451259 42.097778 5.650963 64.474074 4.854519 49.303704 3.527111 99.290074 9.02637 148.66963 1.592889 14.222222 3.792593 28.330667 5.802667 42.477037h254.445037" fill="#5C6A94" p-id="2075"></path><path d="M781.274074 698.254222a48.772741 48.772741 0 0 0-7.168 13.615408 247.732148 247.732148 0 0 0-10.998518 42.059851 675.081481 675.081481 0 0 0-10.884741 81.768297c0 2.23763-0.227556 3.792593-0.227556 5.006222-0.720593 61.515852-10.277926 122.349037-17.635555 183.296h187.733333a1103.075556 1103.075556 0 0 0-29.278815-168.011852 485.451852 485.451852 0 0 0-11.946666-55.561481c-11.377778-40.429037-32.995556-90.794667-76.951704-104.372148-8.722963-2.654815-16.421926-5.347556-22.641778 2.199703zM242.725926 698.254222a48.772741 48.772741 0 0 1 7.168 13.615408 247.732148 247.732148 0 0 1 10.998518 42.059851 675.081481 675.081481 0 0 1 10.884741 81.768297c0 2.23763 0.227556 3.792593 0.227556 5.006222 0.720593 61.515852 10.277926 122.349037 17.635555 183.296H102.058667a1103.075556 1103.075556 0 0 1 29.278814-168.011852 485.451852 485.451852 0 0 1 11.946667-55.561481c11.377778-40.429037 32.995556-90.794667 76.951704-104.372148 8.571259-2.654815 16.270222-5.347556 22.490074 2.199703z" fill="#F6ECF7" p-id="2076"></path><path d="M373.797926 455.111111c4.968296 52.792889 22.490074 102.058667 72.666074 138.733037 19.949037 14.563556 42.81837 28.899556 68.266667 27.723852 14.563556-0.644741 28.216889-6.447407 40.846222-13.198222 100.314074-53.665185 99.214222-149.010963 99.328-245.342815 0-18.318222-0.530963-37.243259-8.760889-53.892741-10.42963-20.897185-31.744-35.498667-54.916741-43.311407-53.589333-18.166519-113.057185-17.180444-164.560592 5.95437C354.228148 304.31763 368.222815 395.946667 373.797926 455.111111z" fill="#FCD6BD" p-id="2077"></path><path d="M698.823111 288.881778c-2.730667-15.54963-11.188148-39.367111-25.258667-54.46163a228.389926 228.389926 0 0 0-17.445925-31.895704c-22.452148-33.754074-61.212444-53.741037-102.4-56.888888a287.971556 287.971556 0 0 0-59.126519 1.782518c-38.570667 5.195852-78.810074 20.897185-94.587259 57.685333a61.022815 61.022815 0 0 0-3.034074 9.216 19.721481 19.721481 0 0 0-4.854519-3.337481c-20.366222-9.40563-44.828444 13.387852-53.096296 28.823704-13.084444 24.272593-16.763259 52.565333-15.853037 79.644444a328.552296 328.552296 0 0 0 5.613037 49.038222c2.199704 12.022519 3.034074 34.512593 15.435852 41.718519C369.739852 424.77037 391.850667 367.881481 399.132444 353.583407a153.827556 153.827556 0 0 0 15.587556-59.240296 44.86637 44.86637 0 0 0 5.575111 4.854519c19.380148 13.805037 40.12563 20.48 63.829333 24.38637l51.048297 8.495407c4.589037 0.758519 9.253926 1.554963 13.918815 2.465186 14.639407 2.88237 29.278815 7.016296 41.339259 15.435851s28.141037 17.408 36.901926 30.037334a2.123852 2.123852 0 0 0 3.792592-1.175704v-17.901037c3.072 6.295704 6.295704 12.47763 9.936593 18.432 5.347556 8.722963 5.423407 21.390222 13.312 28.785778 10.202074 9.557333 19.911111-0.720593 25.144889-10.619259a194.673778 194.673778 0 0 0 10.581333-23.893334 164.977778 164.977778 0 0 0 8.722963-84.764444z" fill="#7D4E3C" p-id="2078"></path><path d="M361.244444 482.417778c5.575111 6.637037 16.57363 11.757037 25.713778 5.650963 10.543407-6.97837 4.020148-22.262519 2.578963-31.023408a313.571556 313.571556 0 0 0-9.936592-38.949926c-3.034074-10.126222-8.798815-26.548148-27.420445-21.845333a21.541926 21.541926 0 0 0-16.042667 15.739259c-3.792593 18.432 12.515556 33.829926 18.962963 50.517334 2.23763 6.030222 1.137778 12.325926 4.892445 18.014814a16.270222 16.270222 0 0 0 1.251555 1.896297zM663.476148 482.417778c-5.575111 6.637037-16.57363 11.757037-25.713778 5.650963-10.505481-6.97837-3.792593-22.262519-2.541037-31.023408a320.246519 320.246519 0 0 1 9.898667-38.949926c3.072-10.126222 8.798815-26.548148 27.420444-21.845333a21.504 21.504 0 0 1 16.042667 15.739259c3.982222 18.432-12.515556 33.829926-18.773333 50.517334-2.275556 6.030222-1.175704 12.325926-4.930371 18.014814a16.270222 16.270222 0 0 1-1.403259 1.896297z" fill="#FCD6BD" p-id="2079"></path><path d="M661.086815 650.126222a481.659259 481.659259 0 0 1-58.898963 125.686519c-19.911111 30.151111-53.930667 92.766815-96.635259 90.453333-37.05363-2.010074-63.829333-57.419852-80.820149-84.574815-25.78963-41.14963-48.090074-84.233481-61.667555-130.844444-5.840593 2.085926-11.719111 4.058074-17.483852 6.106074 15.815111 53.930667 43.008 103.348148 73.614222 150.376296 19.531852 29.999407 45.511111 75.851852 86.357334 77.444741 45.89037 1.744593 77.63437-49.531259 100.465777-81.995852a522.012444 522.012444 0 0 0 72.400593-146.090667c-5.802667-2.085926-11.567407-4.361481-17.332148-6.561185z" fill="#42507A" p-id="2080"></path><path d="M424.77037 594.640593c4.475259 9.291852 7.319704 19.683556 13.349926 27.875555a455.793778 455.793778 0 0 0 31.971556 39.898074 142.032593 142.032593 0 0 0 29.620148 25.372445c2.88237 1.744593 6.068148 3.185778 9.064296 4.854518a2.730667 2.730667 0 0 1 0 4.778667c-10.088296 5.575111-18.962963 18.962963-26.965333 26.548148a230.551704 230.551704 0 0 0-23.703704 27.913481 106.533926 106.533926 0 0 0-11.377778 15.473778 2.806519 2.806519 0 0 1-4.892444 0 565.096296 565.096296 0 0 1-30.340741-55.030518c-9.329778-20.252444-19.190519-44.714667-19.797333-67.356445a9.064296 9.064296 0 0 1 0.530963-3.792592 9.974519 9.974519 0 0 1 2.616889-3.034074 95.838815 95.838815 0 0 0 27.192889-41.984M599.22963 594.640593c-4.475259 9.291852-7.319704 19.683556-13.349926 27.875555a455.793778 455.793778 0 0 1-31.971556 39.898074 142.032593 142.032593 0 0 1-29.620148 25.372445c-2.88237 1.744593-6.068148 3.185778-9.064296 4.854518a2.730667 2.730667 0 0 0 0 4.778667c10.088296 5.575111 18.962963 18.962963 26.965333 26.548148a230.551704 230.551704 0 0 1 23.703704 27.913481 106.533926 106.533926 0 0 1 11.188148 15.473778 2.806519 2.806519 0 0 0 4.892444 0 565.096296 565.096296 0 0 0 30.340741-55.030518c9.329778-20.252444 19.190519-44.714667 19.797333-67.356445a9.064296 9.064296 0 0 0-0.530963-3.792592 9.974519 9.974519 0 0 0-2.616888-3.034074 95.838815 95.838815 0 0 1-27.192889-41.984" fill="#FFFFFF" p-id="2081"></path></svg>