<svg xmlns="http://www.w3.org/2000/svg" version="1.1" xmlns:xlink="http://www.w3.org/1999/xlink" xmlns:svgjs="http://svgjs.dev/svgjs" width="1000" height="1000" viewBox="0 0 1000 1000"><rect width="1000" height="1000" fill="#1ebbd7"></rect><g transform="matrix(0.7,0,0,0.7,149.57575757575756,282.1265587044535)"><svg viewBox="0 0 396 247" data-background-color="#1ebbd7" preserveAspectRatio="xMidYMid meet" height="623" width="1000" xmlns="http://www.w3.org/2000/svg" xmlns:xlink="http://www.w3.org/1999/xlink"><g id="tight-bounds" transform="matrix(1,0,0,1,0.2400000000000091,-0.09999999999999432)"><svg viewBox="0 0 395.52 247.2" height="247.2" width="395.52"><g><svg></svg></g><g><svg viewBox="0 0 395.52 247.2" height="247.2" width="395.52"><g transform="matrix(1,0,0,1,75.54432,94.38071271757252)"><svg viewBox="0 0 244.43135999999998 58.438574564854946" height="58.438574564854946" width="244.43135999999998"><g><svg viewBox="0 0 244.43135999999998 58.438574564854946" height="58.438574564854946" width="244.43135999999998"><g><svg viewBox="0 0 244.43135999999998 58.438574564854946" height="58.438574564854946" width="244.43135999999998"><g><svg viewBox="0 0 244.43135999999998 58.438574564854946" height="58.438574564854946" width="244.43135999999998"><g><svg viewBox="0 0 244.43135999999998 58.438574564854946" height="58.438574564854946" width="244.43135999999998" id="textblock"><g><svg viewBox="0 0 244.43135999999998 58.438574564854946" height="58.438574564854946" width="244.43135999999998"><g transform="matrix(1,0,0,1,0,0)"><svg width="244.43135999999998" viewBox="1.600000023841858 -35.5 149.9399871826172 35.849998474121094" height="58.438574564854946" data-palette-color="#ffffff"><path d="M24.7-12.45Q24.7-6.45 21.65-3.05 18.6 0.35 13 0.35 7.4 0.35 4.5-3.05 1.6-6.45 1.6-12.5 1.6-18.55 4.5-22.03 7.4-25.5 12.85-25.5 18.3-25.5 21.5-21.98 24.7-18.45 24.7-12.45ZM18.05-12.55L18.05-12.55Q18.05-20.2 13.15-20.2L13.15-20.2Q8.15-20.2 8.15-12.6 8.15-5 13.2-5L13.2-5Q15.9-5 16.98-6.93 18.05-8.85 18.05-12.55ZM42.85-35.05L42.85-35.05 42-30.4Q40.75-30.65 39.67-30.65 38.6-30.65 38-30 37.4-29.35 37.4-27.6L37.4-27.6 37.4-25 41.5-25 41.5-19.65 37.4-19.65 37.4 0 30.95 0 30.95-19.65 28.1-19.65 28.1-25 31-25 31-28.8Q31-32 32.82-33.75 34.65-35.5 37.85-35.5 41.05-35.5 42.85-35.05ZM59.09-35.05L59.09-35.05 58.24-30.4Q56.99-30.65 55.92-30.65 54.84-30.65 54.24-30 53.64-29.35 53.64-27.6L53.64-27.6 53.64-25 57.74-25 57.74-19.65 53.64-19.65 53.64 0 47.2 0 47.2-19.65 44.34-19.65 44.34-25 47.24-25 47.24-28.8Q47.24-32 49.07-33.75 50.89-35.5 54.09-35.5 57.3-35.5 59.09-35.05ZM76.04-25.5Q79.89-25.5 82.22-22.23 84.54-18.95 84.54-12.78 84.54-6.6 81.89-3.3 79.24 0 75.09 0L75.09 0Q71.89 0 68.79-2.8L68.79-2.8 67.84 0 62.89 0 62.89-35 69.39-35 69.39-22.7Q73.24-25.5 76.04-25.5L76.04-25.5ZM78.14-12.75L78.14-12.75Q78.14-19.7 73.94-19.7L73.94-19.7Q72.04-19.7 69.39-17.45L69.39-17.45 69.39-7.8Q72.04-5.55 73.92-5.55 75.79-5.55 76.97-7.35 78.14-9.15 78.14-12.75ZM106.99-6L108.09-1.55Q103.34 0.3 99.29 0.3L99.29 0.3Q87.54 0.3 87.54-12.4L87.54-12.4Q87.54-18.85 90.39-22.18 93.24-25.5 98.69-25.5L98.69-25.5Q103.19-25.5 105.89-22.7 108.59-19.9 108.59-14.4L108.59-14.4Q108.59-12.2 108.39-10.55L108.39-10.55 93.94-10.55Q93.94-7.6 95.54-6.2 97.14-4.8 99.84-4.8 102.54-4.8 106.99-6L106.99-6ZM93.89-15.15L102.34-15.15 102.34-15.5Q102.34-17.8 101.34-19.2 100.34-20.6 98.19-20.6 96.04-20.6 94.99-19.05 93.94-17.5 93.89-15.15L93.89-15.15ZM132.69 0L127.89 0 126.89-2.5Q125.14-0.9 123.79-0.28 122.44 0.35 120.54 0.35L120.54 0.35Q117.34 0.35 114.96-1.88 112.59-4.1 112.59-7.8 112.59-11.5 115.49-13.63 118.39-15.75 124.24-15.75L124.24-15.75 126.29-15.75Q126.29-17.9 125.26-19.2 124.24-20.5 122.14-20.5L122.14-20.5Q118.49-20.5 114.74-19.5L114.74-19.5 113.64-23.9Q118.59-25.5 123.59-25.5L123.59-25.5Q132.69-25.5 132.69-17L132.69-17 132.69 0ZM126.19-7.5L126.19-10.95 124.04-10.95Q121.24-10.95 120.24-10.2 119.24-9.45 119.24-8.03 119.24-6.6 119.99-5.7 120.74-4.8 121.94-4.8L121.94-4.8Q123.64-4.8 126.19-7.5L126.19-7.5ZM139.54-5.4L139.54-5.4 139.54-19.5 136.99-19.5 136.99-25 139.59-25 139.59-32.15 146.04-32.15 146.04-25 151.29-25 151.29-19.5 145.99-19.5 145.99-8.6Q145.99-5.25 148.04-5.25L148.04-5.25Q149.19-5.25 150.49-5.55L150.49-5.55 151.54-0.35Q149.24 0.3 146.66 0.3 144.09 0.3 141.81-1.03 139.54-2.35 139.54-5.4Z" opacity="1" transform="matrix(1,0,0,1,0,0)" fill="#ffffff" class="undefined-text-0" data-fill-palette-color="primary" id="text-0"></path></svg></g></svg></g></svg></g></svg></g></svg></g></svg></g></svg></g><g><path d="M245.816 0c68.262 0 123.6 55.338 123.6 123.6 0 68.262-55.338 123.6-123.6 123.6-55.697 0-102.79-36.84-118.24-87.483h2.759c15.361 49.166 61.254 84.848 115.481 84.848 66.807 0 120.965-54.158 120.965-120.965 0-66.807-54.158-120.965-120.965-120.965-54.227 0-100.12 35.682-115.481 84.848l-2.759 0c15.45-50.642 62.542-87.483 118.24-87.483z" fill="#ffffff" stroke="transparent" data-fill-palette-color="tertiary"></path></g></svg></g><defs></defs></svg><rect width="395.52" height="247.2" fill="none" stroke="none" visibility="hidden"></rect></g></svg></g></svg>